HIERARCHY
ROOT hip
{
  OFFSET 0 0 0
  CHANNELS 6 Xposition Yposition Zposition Zrotation Yrotation Xrotation
  JOINT abdomen
  {
    OFFSET 0 20.6881 -0.73152
    CHANNELS 3 Zrotation Xrotation Yrotation
    JOINT chest
    {
      OFFSET 0 11.7043 -0.48768
      CHANNELS 3 Zrotation Xrotation Yrotation
      JOINT neck
      {
        OFFSET 0 22.1894 -2.19456
        CHANNELS 3 Zrotation Xrotation Yrotation
        JOINT head
        {
          OFFSET -0.24384 7.07133 1.2192
          CHANNELS 3 Zrotation Xrotation Yrotation
          JOINT leftEye
          {
            OFFSET 4.14528 8.04674 8.04672
            CHANNELS 3 Zrotation Xrotation Yrotation
            End Site
            {
              OFFSET 1 0 0
            }
          }
          JOINT rightEye
          {
            OFFSET -3.6576 8.04674 8.04672
            CHANNELS 3 Zrotation Xrotation Yrotation
            End Site
            {
              OFFSET 1 0 0
            }
          }
        }
      }
      JOINT rCollar
      {
        OFFSET -2.68224 19.2634 -4.8768
        CHANNELS 3 Zrotation Xrotation Yrotation
        JOINT rShldr
        {
          OFFSET -8.77824 -1.95073 1.46304
          CHANNELS 3 Zrotation Xrotation Yrotation
          JOINT rForeArm
          {
            OFFSET -28.1742 -1.7115 0.48768
            CHANNELS 3 Zrotation Xrotation Yrotation
            JOINT rHand
            {
              OFFSET -22.5879 0.773209 7.07136
              CHANNELS 3 Zrotation Xrotation Yrotation
              JOINT rThumb1
              {
                OFFSET -1.2192 -0.487915 3.41376
                CHANNELS 3 Zrotation Xrotation Yrotation
                JOINT rThumb2
                {
                  OFFSET -3.37035 -0.52449 3.41376
                  CHANNELS 3 Zrotation Xrotation Yrotation
                  End Site
                  {
                    OFFSET -1.78271 -1.18214 1.43049
                  }
                }
              }
              JOINT rIndex1
              {
                OFFSET -7.75947 0.938293 5.60832
                CHANNELS 3 Zrotation Xrotation Yrotation
                JOINT rIndex2
                {
                  OFFSET -2.54057 -0.884171 1.56538
                  CHANNELS 3 Zrotation Xrotation Yrotation
                  End Site
                  {
                    OFFSET -1.62519 -0.234802 1.16502
                  }
                }
              }
              JOINT rMid1
              {
                OFFSET -8.24714 1.18213 3.41376
                CHANNELS 3 Zrotation Xrotation Yrotation
                JOINT rMid2
                {
                  OFFSET -3.10165 -0.590103 1.0647
                  CHANNELS 3 Zrotation Xrotation Yrotation
                  End Site
                  {
                    OFFSET -2.48547 -0.328903 0.83742
                  }
                }
              }
              JOINT rRing1
              {
                OFFSET -8.82822 0.546677 1.51678
                CHANNELS 3 Zrotation Xrotation Yrotation
                JOINT rRing2
                {
                  OFFSET -2.60934 -0.819778 -0.0198488
                  CHANNELS 3 Zrotation Xrotation Yrotation
                  End Site
                  {
                    OFFSET -2.33842 -0.294052 0.168128
                  }
                }
              }
              JOINT rPinky1
              {
                OFFSET -8.27202 -0.0477905 -0.4584
                CHANNELS 3 Zrotation Xrotation Yrotation
                JOINT rPinky2
                {
                  OFFSET -1.82734 -0.647385 -0.700984
                  CHANNELS 3 Zrotation Xrotation Yrotation
                  End Site
                  {
                    OFFSET -1.69225 -0.51767 -0.607171
                  }
                }
              }
            }
          }
        }
      }
      JOINT lCollar
      {
        OFFSET 2.68224 19.2634 -4.8768
        CHANNELS 3 Zrotation Xrotation Yrotation
        JOINT lShldr
        {
          OFFSET 8.77824 -1.95073 1.46304
          CHANNELS 3 Zrotation Xrotation Yrotation
          JOINT lForeArm
          {
            OFFSET 28.1742 -1.7115 0.48768
            CHANNELS 3 Zrotation Xrotation Yrotation
            JOINT lHand
            {
              OFFSET 22.5879 0.773209 7.07136
              CHANNELS 3 Zrotation Xrotation Yrotation
              JOINT lThumb1
              {
                OFFSET 1.2192 -0.487915 3.41376
                CHANNELS 3 Zrotation Xrotation Yrotation
                JOINT lThumb2
                {
                  OFFSET 3.37035 -0.52449 3.41376
                  CHANNELS 3 Zrotation Xrotation Yrotation
                  End Site
                  {
                    OFFSET 1.78271 -1.18214 1.43049
                  }
                }
              }
              JOINT lIndex1
              {
                OFFSET 7.75947 0.938293 5.60832
                CHANNELS 3 Zrotation Xrotation Yrotation
                JOINT lIndex2
                {
                  OFFSET 2.54057 -0.884171 1.56538
                  CHANNELS 3 Zrotation Xrotation Yrotation
                  End Site
                  {
                    OFFSET 1.62519 -0.234802 1.16502
                  }
                }
              }
              JOINT lMid1
              {
                OFFSET 8.24714 1.18213 3.41376
                CHANNELS 3 Zrotation Xrotation Yrotation
                JOINT lMid2
                {
                  OFFSET 3.10165 -0.590103 1.0647
                  CHANNELS 3 Zrotation Xrotation Yrotation
                  End Site
                  {
                    OFFSET 2.48547 -0.328903 0.83742
                  }
                }
              }
              JOINT lRing1
              {
                OFFSET 8.82822 0.546677 1.51678
                CHANNELS 3 Zrotation Xrotation Yrotation
                JOINT lRing2
                {
                  OFFSET 2.60934 -0.819778 -0.0198488
                  CHANNELS 3 Zrotation Xrotation Yrotation
                  End Site
                  {
                    OFFSET 2.33842 -0.294052 0.168128
                  }
                }
              }
              JOINT lPinky1
              {
                OFFSET 8.27202 -0.0477905 -0.4584
                CHANNELS 3 Zrotation Xrotation Yrotation
                JOINT lPinky2
                {
                  OFFSET 1.82734 -0.647385 -0.700984
                  CHANNELS 3 Zrotation Xrotation Yrotation
                  End Site
                  {
                    OFFSET 1.69225 -0.51767 -0.607171
                  }
                }
              }
            }
          }
        }
      }
    }
  }
  JOINT rButtock
  {
    OFFSET -8.77824 4.35084 1.2192
    CHANNELS 3 Zrotation Xrotation Yrotation
    JOINT rThigh
    {
      OFFSET 0 -1.70687 -2.19456
      CHANNELS 3 Zrotation Xrotation Yrotation
      JOINT rShin
      {
        OFFSET 0 -36.8199 0.73152
        CHANNELS 3 Zrotation Xrotation Yrotation
        JOINT rFoot
        {
          OFFSET 0.73152 -45.1104 -5.12064
          CHANNELS 3 Zrotation Xrotation Yrotation
          End Site
          {
            OFFSET -1.1221 -3.69964 12.103
          }
        }
      }
    }
  }
  JOINT lButtock
  {
    OFFSET 8.77824 4.35084 1.2192
    CHANNELS 3 Zrotation Xrotation Yrotation
    JOINT lThigh
    {
      OFFSET 0 -1.70687 -2.19456
      CHANNELS 3 Zrotation Xrotation Yrotation
      JOINT lShin
      {
        OFFSET 0 -36.8199 0.73152
        CHANNELS 3 Zrotation Xrotation Yrotation
        JOINT lFoot
        {
          OFFSET -0.73152 -45.1104 -5.12064
          CHANNELS 3 Zrotation Xrotation Yrotation
          End Site
          {
            OFFSET 1.1221 -3.69964 12.103
          }
        }
      }
    }
  }
}
MOTION
Frames:	4
Frame Time:	0.03333
-0.04921012558776671 35.522522967483184 0.010675358889105145 -3.0172691345214844 7.075397491455078 4.674708366394043 -2.3255045413970947 14.859857559204102 3.6336207389831543 2.816145420074463 -9.850990295410156 1.1408586502075195 -5.214714527130127 15.619721412658691 -3.8075501918792725 9.295088768005371 -26.203569412231445 -5.579081058502197 -0.008593871258199215 -0.007369386963546276 -0.011684790253639221 -0.0037020219024270773 0.0272807814180851 -0.008625839836895466 -0.012234603054821491 -0.04039457067847252 0.03673717379570007 46.57645797729492 35.83204650878906 17.8061580657959 -28.090988159179688 -32.09164810180664 62.85009765625 -1.5121749639511108 -10.899545669555664 -1.601458191871643 -0.007748599164187908 0.03508926182985306 0.013815823011100292 0.01678655855357647 0.014337028376758099 0.010086535476148129 0.0058693354949355125 -0.010271276347339153 -0.02112950198352337 7.740272045135498 5.45841121673584 0.41460490226745605 -0.007694552186876535 -0.04448913782835007 0.0014869922306388617 2.909606695175171 0.9669801592826843 0.12288263440132141 -0.02517569810152054 0.01207265816628933 -0.02198849990963936 10.283623695373535 0.746999979019165 0.03622099384665489 -0.010988440364599228 -0.024692682549357414 0.003787834197282791 2.2672460079193115 -0.7215291857719421 -0.18864016234874725 -0.04312343895435333 -0.011409384198486805 0.02583392523229122 -52.39842224121094 39.984737396240234 -29.574573516845703 27.55714225769043 -30.509902954101562 -59.140533447265625 1.8342372179031372 -13.51177978515625 1.9564937353134155 -0.008998263627290726 -0.006279954221099615 -0.022982465103268623 0.016031574457883835 0.017270483076572418 -0.007062043994665146 0.05312858521938324 -0.006065688095986843 0.03066045418381691 -7.740180015563965 5.492801189422607 -0.3557059168815613 -0.014967531897127628 -0.02958972565829754 -0.03629500791430473 -2.921207904815674 0.9723790884017944 -0.08609923720359802 -0.015008293092250824 0.020809806883335114 0.07329760491847992 -10.306730270385742 0.7490819692611694 -0.05481058359146118 0.01814650185406208 -0.020935125648975372 -0.008116508834064007 -2.2577316761016846 -0.7221022248268127 0.20209725201129913 0.04138762131333351 0.005498346872627735 0.057680804282426834 -27.47368049621582 -38.89689636230469 -23.304195404052734 -1.6427662372589111 64.97379302978516 2.747272253036499 -4.680482864379883 -10.451984405517578 -10.351853370666504 -0.023090921342372894 -0.05295686423778534 -0.002799546578899026 32.86512756347656 -37.47560119628906 26.10699462890625 1.8383082151412964 65.89874267578125 -2.981189489364624 5.260188102722168 -10.653039932250977 14.111368179321289
-0.14505187362991454 35.62445329556187 0.022173355366800145 -3.0799472332000732 7.567049980163574 4.435673236846924 -2.2416481971740723 14.955318450927734 3.5201876163482666 2.865083932876587 -9.960921287536621 1.0444272756576538 -5.205141544342041 15.654739379882812 -3.6780178546905518 9.174588203430176 -26.064279556274414 -5.409318923950195 0.0954398587346077 0.08170437812805176 0.06932365149259567 0.002776260254904628 0.03759754076600075 -0.04561130329966545 -0.1028609648346901 0.019743546843528748 0.017623266205191612 45.966121673583984 35.806583404541016 18.471336364746094 -28.23061752319336 -32.12250518798828 62.58223342895508 -1.6338696479797363 -11.283867835998535 -1.6551460027694702 -0.0764068141579628 0.028323816135525703 0.006004493683576584 -0.06767487525939941 -0.0586077906191349 0.042263880372047424 -0.036530084908008575 0.10324352234601974 0.038839973509311676 7.631145477294922 5.491154193878174 0.41866302490234375 -0.014178427867591381 -0.0812082514166832 0.014038444496691227 2.922729969024658 0.9443302750587463 0.12455625832080841 0.0204092338681221 -0.11411961168050766 0.02700531668961048 10.209763526916504 0.7163271903991699 0.07169818133115768 0.04216799885034561 0.03102634847164154 -0.022253084927797318 2.189462423324585 -0.6727803945541382 -0.22680391371250153 -0.037690311670303345 0.04855378717184067 0.032388199120759964 -51.82696533203125 39.29212188720703 -30.300308227539062 27.386777877807617 -30.566673278808594 -59.15021514892578 1.925534963607788 -14.300591468811035 1.8889319896697998 0.027466008439660072 -0.07425505667924881 0.005217677913606167 0.05707459896802902 -0.048650745302438736 0.036849189549684525 0.0024010506458580494 -0.06814268976449966 -0.06642184406518936 -7.707576274871826 5.46987247467041 -0.426052451133728 0.02654378116130829 0.018417395651340485 0.05172371119260788 -2.959136962890625 1.0103392601013184 -0.09723081439733505 -0.05935104563832283 -0.0841834619641304 -0.059775210916996 -10.227189064025879 0.6651124954223633 -0.024027368053793907 -0.01744404435157776 0.045145876705646515 0.09780246019363403 -2.254709482192993 -0.6878796815872192 0.1098625510931015 0.06128527596592903 0.07295909523963928 0.019190208986401558 -28.310653686523438 -39.40966033935547 -23.590778350830078 -1.6140795946121216 65.22110748291016 2.5881245136260986 -4.480578899383545 -10.46233081817627 -10.35060977935791 -0.012306833639740944 -0.0634186640381813 -0.02172609604895115 33.22001647949219 -37.662628173828125 26.19261360168457 1.7918357849121094 65.83891296386719 -3.0006191730499268 5.053487300872803 -10.515280723571777 13.763801574707031
-0.185266853524186 30.413220449422656 -0.2924168335109362 -177.9470977783203 74.45494842529297 -150.4627685546875 -1.1613770723342896 21.09711456298828 12.622247695922852 -2.258460760116577 -12.906609535217285 2.6974074840545654 -0.03578772768378258 15.207548141479492 8.431808471679688 1.9413752555847168 -24.079608917236328 17.424909591674805 -0.103947214782238 0.17087414860725403 0.4443645179271698 -0.15083977580070496 -0.19441689550876617 0.0335007980465889 0.0012028260389342904 -0.0689387246966362 0.06628523021936417 21.313358306884766 57.01335906982422 33.789981842041016 -24.151357650756836 -43.85554885864258 98.41765594482422 -1.2924082279205322 -12.390646934509277 -1.5259196758270264 0.03827448561787605 -0.0014409312279894948 0.13178955018520355 0.3098706007003784 0.4090624749660492 0.9655300974845886 -0.16101287305355072 0.11997685581445694 -0.008766795508563519 7.689489841461182 5.768835544586182 0.366407573223114 -0.08919929713010788 -0.36787301301956177 0.22728770971298218 2.985630512237549 1.0373730659484863 0.39636194705963135 -0.4911879599094391 -0.050782203674316406 -0.11369216442108154 9.90399169921875 0.9038709998130798 -0.06548028439283371 0.3380609154701233 0.11153244227170944 -0.374918669462204 2.383044719696045 -0.4540908634662628 -0.21918827295303345 0.17135855555534363 -0.6877208948135376 -0.3039359450340271 -47.96808624267578 20.308225631713867 -27.467445373535156 25.97599983215332 -42.561038970947266 -93.4574966430664 2.025211811065674 -37.17981719970703 6.660771369934082 -0.05796847864985466 0.09503214806318283 0.243331179022789 0.3340304493904114 0.5754826068878174 0.3617410957813263 -0.056913990527391434 -0.07928384095430374 0.6440704464912415 -7.816281318664551 5.528609752655029 -0.5209131836891174 -0.19895844161510468 -0.11360206454992294 0.09425481408834457 -3.2174248695373535 1.4712774753570557 0.5850908756256104 -0.42870524525642395 -0.373270720243454 0.07138755172491074 -10.108696937561035 0.48770686984062195 -0.7567688822746277 0.13452303409576416 0.12663811445236206 0.4515818953514099 -2.461538314819336 -0.729611873626709 0.08882986009120941 0.5556583404541016 0.2469828873872757 -0.047998055815696716 -48.45671081542969 -38.942596435546875 -41.04107666015625 -20.186344146728516 85.95915222167969 22.033187866210938 -5.444590091705322 -23.69268798828125 -12.324121475219727 0.0655200257897377 -0.8153359889984131 -0.05897905305027962 87.05760192871094 -53.03989791870117 73.7450180053711 170.7904815673828 82.89228820800781 -171.55201721191406 -2.302616596221924 -9.911409378051758 -3.82024884223938
0.5456141871991304 26.427907521557767 0.004432686049632494 -134.62326049804688 71.46326446533203 -168.5149688720703 -2.6283795833587646 19.37580680847168 16.687541961669922 -4.661546230316162 -13.013667106628418 4.775895118713379 0.4089893102645874 14.439591407775879 13.024584770202637 -1.7664988040924072 -19.901371002197266 23.802871704101562 0.16236330568790436 0.6194552779197693 -0.08813431859016418 -0.27637267112731934 -0.21546080708503723 0.6434739232063293 -0.33406543731689453 -0.28032389283180237 0.4085225462913513 19.393531799316406 61.82777786254883 39.92236328125 -28.20364761352539 -43.101959228515625 93.06187438964844 -0.7900415062904358 6.4337968826293945 1.1336753368377686 0.22704671323299408 -0.004656442906707525 -0.2953396439552307 0.25039196014404297 0.08933236449956894 0.40165460109710693 0.22208821773529053 0.4426615834236145 0.6131792068481445 7.133515357971191 6.29468297958374 0.9276483058929443 -0.22912365198135376 -0.4063432514667511 -0.8686476349830627 2.483639717102051 0.6538760662078857 0.39157232642173767 -0.22199611365795135 0.2862340211868286 0.1455223560333252 9.926468849182129 1.5072124004364014 0.5487450361251831 0.33171385526657104 -0.05439523234963417 0.0935022383928299 2.700268268585205 0.19473502039909363 0.8217481970787048 -0.10273110121488571 -0.019217638298869133 -0.8455544710159302 -56.587554931640625 7.33721923828125 -12.586392402648926 25.946577072143555 -44.2708625793457 -96.81183624267578 0.9259510636329651 -43.9662971496582 6.025776386260986 -0.008097097277641296 0.2532401382923126 0.8699049949645996 0.7234601974487305 0.6446774005889893 0.1704980880022049 -0.37832534313201904 -0.23533116281032562 0.03522874414920807 -7.4405436515808105 4.976126194000244 -0.47822442650794983 -0.30585968494415283 -0.12047924846410751 -0.4431745707988739 -2.4925754070281982 1.2074424028396606 0.0031542452052235603 0.3356766402721405 0.10781248658895493 0.403857558965683 -10.056453704833984 0.8044840097427368 -0.6273013353347778 0.30133089423179626 -0.05007556080818176 0.6913511753082275 -1.9919251203536987 -0.8509219288825989 0.34328895807266235 0.19880180060863495 -0.09018140286207199 -0.01235481072217226 -67.13162231445312 -42.26291275024414 -54.32230758666992 -163.40109252929688 83.48921203613281 166.7910614013672 -3.7811689376831055 -28.086122512817383 -7.979198932647705 -0.6671525239944458 -0.6111319661140442 -0.0941622406244278 105.98053741455078 -52.32590866088867 89.47740936279297 174.64024353027344 73.05415344238281 -176.49835205078125 -5.207030296325684 -16.564624786376953 -12.726550102233887
